HIERARCHY
ROOT Hips
{
    OFFSET 0.0 0.0 0.0
    CHANNELS 6 Xposition Yposition Zposition Zrotation Xrotation Yrotation
    JOINT LeftHipJoint
    {
        OFFSET 0.1 0.0 0.0
        CHANNELS 3 Zrotation Xrotation Yrotation
        JOINT LeftUpLeg
        {
            OFFSET 125.91562485465795 0.0 0.0
            CHANNELS 3 Zrotation Xrotation Yrotation
            JOINT LeftLeg
            {
                OFFSET 0.0 0.0 -408.52588051263024
                CHANNELS 3 Zrotation Xrotation Yrotation
                JOINT LeftFoot
                {
                    OFFSET 0.0 0.0 -376.84279817397913
                    CHANNELS 3 Zrotation Xrotation Yrotation
                    End Site
                    {
                        OFFSET 0.0 -0.1 0.0
                    }
                }
            }
        }
    }
    JOINT LowerBack
    {
        OFFSET 0.0 0.0 0.1
        CHANNELS 3 Zrotation Xrotation Yrotation
        JOINT Spine
        {
            OFFSET 0.0 0.0 219.1042863721827
            CHANNELS 3 Zrotation Xrotation Yrotation
            JOINT Spine1
            {
                OFFSET 0.0 0.0 251.3627792685026
                CHANNELS 3 Zrotation Xrotation Yrotation
                JOINT LeftShoulder
                {
                    OFFSET 0.1 0.0 0.0
                    CHANNELS 3 Zrotation Xrotation Yrotation
                    JOINT LeftArm
                    {
                        OFFSET 139.26429425652566 0.0 0.0
                        CHANNELS 3 Zrotation Xrotation Yrotation
                        JOINT LeftForeArm
                        {
                            OFFSET 266.45623721238337 0.0 0.0
                            CHANNELS 3 Zrotation Xrotation Yrotation
                            JOINT LeftHand
                            {
                                OFFSET 238.58817467459295 0.0 0.0
                                CHANNELS 3 Zrotation Xrotation Yrotation
                                End Site
                                {
                                    OFFSET 0.1 0.0 0.0
                                }
                            }
                        }
                    }
                }
                JOINT Neck
                {
                    OFFSET 0.0 0.0 0.1
                    CHANNELS 3 Zrotation Xrotation Yrotation
                    JOINT Neck1
                    {
                        OFFSET 0.0 0.0 107.16059162253374
                        CHANNELS 3 Zrotation Xrotation Yrotation
                        End Site
                        {
                            OFFSET 0.0 0.0 117.27823685650056
                        }
                    }
                }
                JOINT RightShoulder
                {
                    OFFSET -0.1 0.0 0.0
                    CHANNELS 3 Zrotation Xrotation Yrotation
                    JOINT RightArm
                    {
                        OFFSET -139.26429425652566 0.0 0.0
                        CHANNELS 3 Zrotation Xrotation Yrotation
                        JOINT RightForeArm
                        {
                            OFFSET -266.45623721238337 0.0 0.0
                            CHANNELS 3 Zrotation Xrotation Yrotation
                            JOINT RightHand
                            {
                                OFFSET -238.58817467459295 0.0 0.0
                                CHANNELS 3 Zrotation Xrotation Yrotation
                                End Site
                                {
                                    OFFSET -0.1 0.0 0.0
                                }
                            }
                        }
                    }
                }
            }
        }
    }
    JOINT RightHipJoint
    {
        OFFSET -0.1 0.0 0.0
        CHANNELS 3 Zrotation Xrotation Yrotation
        JOINT RightUpLeg
        {
            OFFSET -125.91562485465795 0.0 0.0
            CHANNELS 3 Zrotation Xrotation Yrotation
            JOINT RightLeg
            {
                OFFSET 0.0 0.0 -408.52588051263024
                CHANNELS 3 Zrotation Xrotation Yrotation
                JOINT RightFoot
                {
                    OFFSET 0.0 0.0 -376.84279817397913
                    CHANNELS 3 Zrotation Xrotation Yrotation
                    End Site
                    {
                        OFFSET 0.0 -0.1 0.0
                    }
                }
            }
        }
    }
}
MOTION
Frames: 7
Frame Time: 0.03333333333333333
0.0 0.0 774.6383871969332 23.289161294025945 5.823688047233744 2.125237424618239 1.3793457181406746e-33 -7.951386703658792e-16 1.987846675914698e-16 -0.01419918045793853 -25.904700352822584 3.323134913342172 1.3723471039110662 22.20433809938955 0.2028282453102027 0.0 0.0 -1.9878466759146977e-16 1.3793457181406746e-33 -7.951386703658792e-16 1.987846675914698e-16 0.003329397755253324 5.741606385648198 1.5639551579481434 0.056953093746229574 7.953361678882891e-16 3.971740946207266e-16 0.0 0.0 0.0 -25.322770493805102 -0.3665959458421953 74.94978290828998 -27.724570422905465 -1.5439595601477994e-15 -3.810129880635126e-16 0.0 0.0 -1.5902773407317584e-15 0.0 0.0 0.0 -2.7873022816483366 3.913890919884224 -5.8633175425008455 0.0 0.0 0.0 23.387127562147676 -0.13099584276070597 -75.00104522254874 40.73293642045884 5.963449873777449e-15 -2.2138152429825074e-15 0.0 0.0 -7.951386703658792e-16 1.3793457181406746e-33 -7.951386703658792e-16 1.987846675914698e-16 -0.01655672889885719 -24.005614224063343 -1.3549178258214927 -0.6320456757344248 25.637859430503827 0.5404540936179426 0.0 0.0 -3.975693351829396e-16
0.0 0.0 774.6383871969332 23.245929721306016 5.917241485066233 2.1674694223604303 0.0 0.0 -1.987846675914698e-16 -0.018903945437665673 -25.869663658509808 3.3512070454746 1.4013599842194195 22.392348494908113 0.043975289926876354 0.0 0.0 -5.466578358765419e-16 0.0 0.0 -1.987846675914698e-16 0.0043055530527530035 5.726535321420343 1.4939015953879384 0.01586854785646545 1.3916578250527657e-15 1.1925153013159844e-15 0.0 0.0 0.0 -25.443203200817692 -0.39200971982923527 74.90713663441659 -27.727369056295036 1.905253477928549e-15 -7.71975127163842e-15 0.0 0.0 -1.1927080055488188e-15 0.0 0.0 0.0 -2.746991160653744 3.8082433187772673 -5.851357802249865 0.0 0.0 0.0 23.240769376143604 -0.2972197809347109 -74.86954756978616 41.05411082605969 -1.1914443263734868e-14 4.4610414729875316e-15 0.0 0.0 7.951386703658792e-16 0.0 0.0 -1.987846675914698e-16 -0.020894485334193406 -23.929638900802946 -1.4232124656270408 -0.6604998519293571 25.665085402835373 0.6238963470008657 0.0 0.0 1.987846675914698e-16
0.0 0.0 774.6383871969332 23.14171906774272 6.1108971810546455 2.209041639229297 0.0 0.0 1.987846675914698e-16 0.005388453620815941 -26.134121407106942 3.3520389611407495 1.3956832264713803 22.639681605862815 -0.08172433795129254 0.0 0.0 -2.4848083448933725e-16 0.0 0.0 1.987846675914698e-16 -0.0007005529635177765 5.739013267761721 1.4490075641684017 -0.03434321213723393 7.951386346559126e-16 2.383039017722069e-19 0.0 0.0 -3.975693351829396e-16 -25.50016196536624 -0.4445715459156851 74.72290915584185 -27.910570248731055 -3.867501872440344e-17 6.74979228976743e-15 0.0 0.0 -1.5902773407317584e-15 0.0 0.0 -3.975693351829396e-16 -2.6649372909452 3.5396301383445703 -5.885957274994388 0.0 0.0 -3.975693351829396e-16 23.298229080837547 -0.39312363009758705 -74.73452878789884 41.31478093514899 2.244066297574577e-15 5.952132288449906e-15 0.0 0.0 2.3854160110976376e-15 0.0 0.0 1.987846675914698e-16 0.0012295619650369656 -24.111984749069084 -1.557637646768763 -0.7511674707642938 25.658356708294434 0.8549971225139221 0.0 0.0 3.975693351829396e-16
0.0 0.0 774.6383871969332 23.033507269646197 6.170587717723017 2.2467602320902422 3.1805546814635164e-15 -9.93923337957349e-17 -1.9878466759146977e-16 0.036711741250374845 -26.258296183256025 3.3471572146243105 1.3789338426339104 22.861262842984463 -0.16468449848865452 0.0 0.0 2.981770013872047e-16 3.1805546814635164e-15 -9.93923337957349e-17 -1.9878466759146977e-16 -0.007050861411467228 5.723838947903699 1.3434819297043707 -0.17261134118586482 2.5841977469214037e-15 3.892626823016129e-18 0.0 0.0 7.951386703658792e-16 -25.688345344988434 -0.28167740591458995 74.6374199823045 -27.931376427926594 1.7912179467063092e-15 5.976131874030777e-15 0.0 0.0 -3.578124016646457e-15 0.0 0.0 7.951386703658792e-16 -2.436878067644616 3.5136212613090883 -5.840857960745128 0.0 0.0 7.951386703658792e-16 23.322368010451612 0.12131092148924354 -74.77845699694167 41.942003875033876 -8.464602601543997e-15 1.346286391680544e-14 0.0 0.0 1.5902773407317584e-15 3.1805546814635164e-15 -9.93923337957349e-17 -1.9878466759146977e-16 0.029591522317015017 -24.135386673356866 -1.6711975168007422 -0.8379981145029521 25.627303555872096 1.0260104206348293 0.0 0.0 0.0
0.0 0.0 774.6383871969332 22.97671811264577 6.310755899303561 2.270090720286138 1.3793457181406746e-33 -7.951386703658792e-16 1.987846675914698e-16 0.032495652529375724 -26.43077966368659 3.3194847560894596 1.384722169550273 23.059668316292218 -0.16212862687302274 0.0 0.0 2.981770013872047e-16 1.3793457181406746e-33 -7.951386703658792e-16 1.987846675914698e-16 -0.0061719737423067645 5.7468634186442955 1.3036776325780914 -0.32593199812443696 -1.5902709080609871e-15 -4.523209010945581e-18 0.0 0.0 -3.975693351829396e-16 -25.859341335201165 -0.2443731454600827 74.46436865614793 -28.031072508355464 -5.15600436450651e-15 7.522992639859785e-15 0.0 0.0 -2.9817700138720468e-15 0.0 0.0 -3.975693351829396e-16 -2.4184967889127065 3.4807185575956687 -5.868779376708148 0.0 0.0 -3.975693351829396e-16 23.327822567363366 0.46668110373839927 -74.79272419780088 42.50692082046002 7.081397758331931e-15 6.583663092754496e-16 0.0 0.0 1.5902773407317584e-15 1.3793457181406746e-33 -7.951386703658792e-16 1.987846675914698e-16 0.025821964126229176 -24.348168787635412 -1.7542051372331018 -0.8779570276979651 25.749742622617386 1.2093101925998249 0.0 0.0 -3.975693351829396e-16
0.0 0.0 774.6383871969332 22.96027427619435 6.383631835209658 2.307205454017619 0.0 0.0 -1.987846675914698e-16 0.029188539251943285 -26.476249580566954 3.3075902225972946 1.4020254133076762 23.34448130314946 -0.21793578050299942 0.0 0.0 0.0 0.0 0.0 -1.987846675914698e-16 -0.005478491008550249 5.745396182050748 1.251152277838947 -0.4234807779875134 3.972727721910518e-15 8.098256481831949e-16 0.0 0.0 3.975693351829396e-16 -25.681934845447724 -0.1745796731395381 74.46125343577442 -28.106407367050004 3.7669577918518285e-15 -2.1598024776706102e-14 0.0 0.0 -2.1866313435061676e-15 0.0 0.0 3.975693351829396e-16 -2.471814706185887 3.375805706482649 -5.931689172391019 0.0 0.0 3.975693351829396e-16 23.218510296681377 0.7107565773234232 -74.83139997795944 43.104975191700696 -1.0589900154325841e-14 -9.495924197096319e-15 0.0 0.0 0.0 0.0 0.0 -1.987846675914698e-16 0.022743999119679382 -24.42854412069952 -1.784085561939895 -0.8979197407151116 25.98049450817754 1.262067944292442 0.0 0.0 5.963540027744093e-16
0.0 0.0 774.6383871969332 22.8954422399268 6.676043153103628 2.3150385054137104 0.0 0.0 1.987846675914698e-16 0.029855018099491412 -26.781002718793076 3.347142509973642 1.426618494017262 23.458982087393945 -0.3144356337764923 0.0 0.0 -3.4787316828507215e-16 0.0 0.0 1.987846675914698e-16 -0.0054997165116678565 5.7128334258406435 1.2268929386790437 -0.5212817817876606 -1.3896697222918668e-15 -4.038951579632479e-16 -3.1805546814635168e-15 2.2069531490250793e-32 -7.951386703658792e-16 -25.72031916437025 -0.21908723698483631 74.30138240999827 -28.15663689531538 -8.65556416571467e-16 -3.0862277213111256e-15 1.5902773407317588e-15 1.9310840053969444e-32 1.391492673140289e-15 -3.1805546814635168e-15 2.2069531490250793e-32 -7.951386703658792e-16 -2.470243544094161 3.083362372366285 -5.985475242038308 -3.1805546814635168e-15 2.2069531490250793e-32 -7.951386703658792e-16 23.141566907126613 0.819172375316996 -74.69037808853443 44.09966559085608 4.776084598911929e-15 1.179168627519017e-14 0.0 0.0 -7.951386703658792e-16 0.0 0.0 1.987846675914698e-16 0.02340077402312602 -24.82451352783564 -1.7741059007677689 -0.9031787574870775 26.226697575277036 1.3400738994926555 0.0 0.0 -1.987846675914698e-16
